<svg xmlns="http://www.w3.org/2000/svg" width="1400" height="900" viewBox="0 0 1400 900">
  <rect x="0" y="0" width="1400" height="900" fill="#ffffff" />
  <line x1="0" y1="0" x2="0" y2="900" stroke="#e2e8f0" stroke-width="1" />
<line x1="50" y1="0" x2="50" y2="900" stroke="#e2e8f0" stroke-width="1" />
<line x1="100" y1="0" x2="100" y2="900" stroke="#e2e8f0" stroke-width="1" />
<line x1="150" y1="0" x2="150" y2="900" stroke="#e2e8f0" stroke-width="1" />
<line x1="200" y1="0" x2="200" y2="900" stroke="#e2e8f0" stroke-width="1" />
<line x1="250" y1="0" x2="250" y2="900" stroke="#e2e8f0" stroke-width="1" />
<line x1="300" y1="0" x2="300" y2="900" stroke="#e2e8f0" stroke-width="1" />
<line x1="350" y1="0" x2="350" y2="900" stroke="#e2e8f0" stroke-width="1" />
<line x1="400" y1="0" x2="400" y2="900" stroke="#e2e8f0" stroke-width="1" />
<line x1="450" y1="0" x2="450" y2="900" stroke="#e2e8f0" stroke-width="1" />
<line x1="500" y1="0" x2="500" y2="900" stroke="#e2e8f0" stroke-width="1" />
<line x1="550" y1="0" x2="550" y2="900" stroke="#e2e8f0" stroke-width="1" />
<line x1="600" y1="0" x2="600" y2="900" stroke="#e2e8f0" stroke-width="1" />
<line x1="650" y1="0" x2="650" y2="900" stroke="#e2e8f0" stroke-width="1" />
<line x1="700" y1="0" x2="700" y2="900" stroke="#e2e8f0" stroke-width="1" />
<line x1="750" y1="0" x2="750" y2="900" stroke="#e2e8f0" stroke-width="1" />
<line x1="800" y1="0" x2="800" y2="900" stroke="#e2e8f0" stroke-width="1" />
<line x1="850" y1="0" x2="850" y2="900" stroke="#e2e8f0" stroke-width="1" />
<line x1="900" y1="0" x2="900" y2="900" stroke="#e2e8f0" stroke-width="1" />
<line x1="950" y1="0" x2="950" y2="900" stroke="#e2e8f0" stroke-width="1" />
<line x1="1000" y1="0" x2="1000" y2="900" stroke="#e2e8f0" stroke-width="1" />
<line x1="1050" y1="0" x2="1050" y2="900" stroke="#e2e8f0" stroke-width="1" />
<line x1="1100" y1="0" x2="1100" y2="900" stroke="#e2e8f0" stroke-width="1" />
<line x1="1150" y1="0" x2="1150" y2="900" stroke="#e2e8f0" stroke-width="1" />
<line x1="1200" y1="0" x2="1200" y2="900" stroke="#e2e8f0" stroke-width="1" />
<line x1="1250" y1="0" x2="1250" y2="900" stroke="#e2e8f0" stroke-width="1" />
<line x1="1300" y1="0" x2="1300" y2="900" stroke="#e2e8f0" stroke-width="1" />
<line x1="1350" y1="0" x2="1350" y2="900" stroke="#e2e8f0" stroke-width="1" />
<line x1="1400" y1="0" x2="1400" y2="900" stroke="#e2e8f0" stroke-width="1" />
<line x1="0" y1="0" x2="1400" y2="0" stroke="#e2e8f0" stroke-width="1" />
<line x1="0" y1="50" x2="1400" y2="50" stroke="#e2e8f0" stroke-width="1" />
<line x1="0" y1="100" x2="1400" y2="100" stroke="#e2e8f0" stroke-width="1" />
<line x1="0" y1="150" x2="1400" y2="150" stroke="#e2e8f0" stroke-width="1" />
<line x1="0" y1="200" x2="1400" y2="200" stroke="#e2e8f0" stroke-width="1" />
<line x1="0" y1="250" x2="1400" y2="250" stroke="#e2e8f0" stroke-width="1" />
<line x1="0" y1="300" x2="1400" y2="300" stroke="#e2e8f0" stroke-width="1" />
<line x1="0" y1="350" x2="1400" y2="350" stroke="#e2e8f0" stroke-width="1" />
<line x1="0" y1="400" x2="1400" y2="400" stroke="#e2e8f0" stroke-width="1" />
<line x1="0" y1="450" x2="1400" y2="450" stroke="#e2e8f0" stroke-width="1" />
<line x1="0" y1="500" x2="1400" y2="500" stroke="#e2e8f0" stroke-width="1" />
<line x1="0" y1="550" x2="1400" y2="550" stroke="#e2e8f0" stroke-width="1" />
<line x1="0" y1="600" x2="1400" y2="600" stroke="#e2e8f0" stroke-width="1" />
<line x1="0" y1="650" x2="1400" y2="650" stroke="#e2e8f0" stroke-width="1" />
<line x1="0" y1="700" x2="1400" y2="700" stroke="#e2e8f0" stroke-width="1" />
<line x1="0" y1="750" x2="1400" y2="750" stroke="#e2e8f0" stroke-width="1" />
<line x1="0" y1="800" x2="1400" y2="800" stroke="#e2e8f0" stroke-width="1" />
<line x1="0" y1="850" x2="1400" y2="850" stroke="#e2e8f0" stroke-width="1" />
<line x1="0" y1="900" x2="1400" y2="900" stroke="#e2e8f0" stroke-width="1" />
    <rect x="1" y="1" width="1398" height="898" fill="none" stroke="#94a3b8" stroke-width="2" />
  <text x="24" y="36" fill="#334155" font-size="20" font-family="Arial, sans-serif">Plano en blanco · Diseñado en ITCity</text>
</svg>